<?xml version="1.0" standalone="no"?>
<!DOCTYPE svg PUBLIC "-//W3C//DTD SVG 20010904//EN"
 "http://www.w3.org/TR/2001/REC-SVG-20010904/DTD/svg10.dtd">
<svg version="1.0" xmlns="http://www.w3.org/2000/svg"
 width="275.000000pt" height="101.000000pt" viewBox="0 0 275.000000 101.000000"
 preserveAspectRatio="xMidYMid meet">

<g transform="translate(0.000000,101.000000) scale(0.100000,-0.100000)"
fill="#000000" stroke="none">
<path d="M380 550 c0 -260 4 -400 10 -400 7 0 10 140 10 400 0 260 -3 400 -10
400 -6 0 -10 -140 -10 -400z"/>
<path d="M850 550 c0 -349 2 -400 15 -400 13 0 15 51 15 400 0 349 -2 400 -15
400 -13 0 -15 -51 -15 -400z"/>
<path d="M1360 539 c0 -271 3 -408 10 -404 14 8 14 815 0 815 -7 0 -10 -144
-10 -411z"/>
<path d="M1850 539 c0 -271 3 -408 10 -404 14 8 14 815 0 815 -7 0 -10 -144
-10 -411z"/>
<path d="M2290 550 c0 -260 4 -400 10 -400 7 0 10 140 10 400 0 260 -3 400
-10 400 -6 0 -10 -140 -10 -400z"/>
<path d="M87 913 c-4 -3 -7 -168 -7 -365 l0 -358 30 0 30 0 0 170 0 170 40 0
c38 0 40 2 40 30 0 28 -2 30 -40 30 l-40 0 0 135 0 135 40 0 c38 0 40 2 40 30
l0 30 -63 0 c-35 0 -67 -3 -70 -7z"/>
<path d="M567 913 c-4 -3 -7 -168 -7 -365 l0 -358 70 0 c68 0 70 1 70 24 0 21
-5 25 -37 28 l-38 3 -3 338 -2 337 -23 0 c-13 0 -27 -3 -30 -7z"/>
<path d="M1030 722 c0 -180 2 -200 18 -215 21 -19 57 -22 67 -7 17 28 25 -12
25 -123 0 -127 -7 -154 -34 -144 -13 5 -16 24 -16 112 l0 105 -30 0 -30 0 0
-115 c0 -102 2 -117 20 -135 26 -26 89 -27 121 -1 l24 19 0 349 0 348 -27 3
-28 3 0 -170 c0 -93 -3 -176 -6 -185 -3 -9 -15 -16 -25 -16 -17 0 -19 12 -21
183 l-3 182 -27 3 -28 3 0 -199z"/>
<path d="M1573 913 c-42 -8 -48 -29 -48 -162 l0 -126 27 -3 27 -3 3 128 c3
120 4 128 23 128 19 0 20 -8 23 -129 3 -141 -3 -160 -57 -192 -44 -26 -51 -52
-50 -192 1 -161 5 -176 48 -180 18 -2 39 2 47 9 10 8 14 8 14 0 0 -19 50 -13
50 7 1 9 1 167 1 351 -1 258 -4 338 -13 347 -15 14 -64 23 -95 17z m55 -525
c-3 -160 -3 -163 -25 -166 -23 -3 -23 -3 -23 144 0 123 3 150 17 166 9 10 20
18 25 18 5 0 7 -73 6 -162z"/>
<path d="M2070 555 l0 -365 30 0 30 0 0 365 0 365 -30 0 -30 0 0 -365z"/>
<path d="M2457 913 c-4 -3 -7 -168 -7 -365 l0 -358 30 0 30 0 0 175 c0 165 1
175 19 175 10 0 22 -7 25 -16 3 -9 6 -87 6 -175 l0 -159 30 0 30 0 0 165 c0
164 0 166 -25 191 l-25 25 22 19 c21 17 23 28 26 126 5 142 -6 180 -56 194
-42 11 -95 13 -105 3z m97 -59 c10 -26 7 -224 -4 -245 -6 -10 -17 -19 -25 -19
-13 0 -15 24 -15 140 0 131 1 140 19 140 10 0 22 -7 25 -16z"/>
</g>
</svg>
