<?xml version="1.0" ?><svg height="295px" version="1.1" viewBox="0 0 295 295" width="295px" xmlns="http://www.w3.org/2000/svg" xmlns:xlink="http://www.w3.org/1999/xlink"><title/><desc/><defs/><g fill="none" fill-rule="evenodd" id="Page-1" stroke="none" stroke-width="1"><g fill-rule="nonzero" id="add"><path d="M251.63,43.179 C240.335,31.884 227.699,22.707 214.074,15.903 C211.108,14.421 207.506,15.626 206.026,18.59 C204.546,21.555 205.749,25.158 208.713,26.638 C221.18,32.864 232.765,41.284 243.145,51.664 C295.946,104.465 295.946,190.378 243.145,243.179 C190.344,295.98 104.431,295.98 51.63,243.179 C-1.171,190.378 -1.171,104.465 51.63,51.664 C77.207,26.086 111.215,12 147.386,12 C150.699,12 153.386,9.313 153.386,6 C153.386,2.687 150.699,0 147.386,0 C108.009,0 70.989,15.334 43.144,43.179 C-14.335,100.658 -14.335,194.185 43.144,251.664 C71.884,280.404 109.635,294.774 147.387,294.774 C185.139,294.774 222.89,280.404 251.63,251.664 C309.109,194.185 309.109,100.658 251.63,43.179 Z" fill="#000000" id="Shape"/><path d="M147.387,51.992 C144.074,51.992 141.387,54.679 141.387,57.992 L141.387,236.851 C141.387,240.165 144.074,242.851 147.387,242.851 C150.7,242.851 153.387,240.165 153.387,236.851 L153.387,57.992 C153.387,54.678 150.7,51.992 147.387,51.992 Z" fill="#FB4A5E" id="Shape"/><path d="M171.387,153.421 L236.817,153.421 C240.13,153.421 242.817,150.734 242.817,147.421 C242.817,144.108 240.13,141.421 236.817,141.421 L171.387,141.421 C168.074,141.421 165.387,144.108 165.387,147.421 C165.387,150.734 168.073,153.421 171.387,153.421 Z" fill="#FB4A5E" id="Shape"/><path d="M57.957,141.421 C54.644,141.421 51.957,144.108 51.957,147.421 C51.957,150.734 54.644,153.421 57.957,153.421 L121.387,153.421 C124.7,153.421 127.387,150.734 127.387,147.421 C127.387,144.108 124.7,141.421 121.387,141.421 L57.957,141.421 Z" fill="#FB4A5E" id="Shape"/></g></g></svg>